HIERARCHY
ROOT Hips
{
	OFFSET -0.001795 -0.223333 0.028219
	CHANNELS 6 Xposition Yposition Zposition Zrotation Yrotation Xrotation 
	JOINT LeftUpLeg
	{
		OFFSET 0.069520 -0.091406 -0.006815
		CHANNELS 3 Zrotation Yrotation Xrotation
		JOINT LeftLeg
		{
			OFFSET 0.034277 -0.375199 -0.004496
			CHANNELS 3 Zrotation Yrotation Xrotation
			JOINT LeftFoot
			{
				OFFSET -0.013596 -0.397961 -0.043693
				CHANNELS 3 Zrotation Yrotation Xrotation
				JOINT LeftToe
				{
					OFFSET 0.026358 -0.055791 0.119288
					CHANNELS 3 Zrotation Yrotation Xrotation
					End Site
					{
						OFFSET 0.000000 0.000000 0.000000
					}
				}
			}
		}
	}
	JOINT RightUpLeg
	{
		OFFSET -0.067670 -0.090522 -0.004320
		CHANNELS 3 Zrotation Yrotation Xrotation
		JOINT RightLeg
		{
			OFFSET -0.038290 -0.382569 -0.008850
			CHANNELS 3 Zrotation Yrotation Xrotation
			JOINT RightFoot
			{
				OFFSET 0.015774 -0.398415 -0.042312
				CHANNELS 3 Zrotation Yrotation Xrotation
				JOINT RightToe
				{
					OFFSET -0.025372 -0.048144 0.123348
					CHANNELS 3 Zrotation Yrotation Xrotation
					End Site
					{
						OFFSET 0.000000 0.000000 0.000000
					}
				}
			}
		}
	}
	JOINT Spine
	{
		OFFSET -0.002533 0.108963 -0.026696
		CHANNELS 3 Zrotation Yrotation Xrotation
		JOINT Spine1
		{
			OFFSET 0.005487 0.135180 0.001092
			CHANNELS 3 Zrotation Yrotation Xrotation
			JOINT Spine2
			{
				OFFSET 0.001457 0.052922 0.025425
				CHANNELS 3 Zrotation Yrotation Xrotation
				JOINT Neck
				{
					OFFSET -0.002778 0.213870 -0.042857
					CHANNELS 3 Zrotation Yrotation Xrotation
					JOINT Head
					{
						OFFSET 0.005152 0.064970 0.051349
						CHANNELS 3 Zrotation Yrotation Xrotation
						End Site
						{
							OFFSET 0.000000 0.000000 0.000000
						}
					}
				}
				JOINT LeftShoulder
				{
					OFFSET 0.078845 0.121749 -0.034090
					CHANNELS 3 Zrotation Yrotation Xrotation
					JOINT LeftArm
					{
						OFFSET 0.090977 0.030469 -0.008868
						CHANNELS 3 Zrotation Yrotation Xrotation
						JOINT LeftForeArm
						{
							OFFSET 0.259612 -0.012772 -0.027456
							CHANNELS 3 Zrotation Yrotation Xrotation
							JOINT LeftHand
							{
								OFFSET 0.249234 0.008986 -0.001171
								CHANNELS 3 Zrotation Yrotation Xrotation
								End Site
								{
									OFFSET 0.000000 0.000000 0.000000
								}
							}
						}
					}
				}
				JOINT RightShoulder
				{
					OFFSET -0.081759 0.118833 -0.038615
					CHANNELS 3 Zrotation Yrotation Xrotation
					JOINT RightArm
					{
						OFFSET -0.096012 0.032551 -0.009143
						CHANNELS 3 Zrotation Yrotation Xrotation
						JOINT RightForeArm
						{
							OFFSET -0.253742 -0.013329 -0.021401
							CHANNELS 3 Zrotation Yrotation Xrotation
							JOINT RightHand
							{
								OFFSET -0.255298 0.007772 -0.005559
								CHANNELS 3 Zrotation Yrotation Xrotation
								End Site
								{
									OFFSET 0.000000 0.000000 0.000000
								}
							}
						}
					}
				}
			}
		}
	}
}
MOTION
Frames: 15
Frame Time: 0.050000
0.000000 0.953962 0.000000 -0.214175 0.146858 -1.149150 0.610359 0.196330 2.354840 0.382576 -0.120279 2.069820 -3.248839 -2.215719 8.714849 0.000000 0.000000 0.000000 -0.124246 -0.093359 0.966202 -0.826307 0.264832 3.751579 4.882248 8.638456 5.326688 0.000000 0.000000 0.000000 1.390886 -0.057162 0.976146 -1.389868 0.653515 1.273750 -1.058861 0.546176 2.635106 2.700041 -0.918863 -10.868705 0.000000 0.000000 0.000000 -25.761972 -7.478574 1.615782 -46.890649 -3.508620 -3.992113 -12.606122 -23.130841 3.380300 0.000000 0.000000 0.000000 25.266406 6.438309 1.712231 51.091829 3.951521 -3.232008 11.006436 24.375513 2.991417 0.000000 0.000000 0.000000 
0.000132 0.953463 -0.000097 -0.157474 0.101224 -0.872459 0.742914 0.186078 2.284403 -0.006354 -0.048958 1.449285 -3.256990 -2.039978 9.131810 0.000000 0.000000 0.000000 -0.359103 -0.064800 0.744327 -0.025360 0.120339 2.948613 4.562894 7.220574 6.345858 0.000000 0.000000 0.000000 1.015202 -0.044236 0.790930 -1.546570 0.723896 1.853659 -0.723871 0.154484 1.815076 3.174151 -1.226089 -11.149240 0.000000 0.000000 0.000000 -25.606579 -7.555204 1.810380 -47.424726 -3.028703 -4.198197 -10.929807 -22.563712 2.973441 0.000000 0.000000 0.000000 25.452372 7.066571 1.882243 50.461333 4.130538 -2.987969 10.572419 23.093194 2.699953 0.000000 0.000000 0.000000 
0.000098 0.952356 -0.000159 -0.344520 0.462903 -0.875717 1.042934 0.178203 2.319591 -0.097511 -0.034281 1.335983 -3.342819 -2.347405 8.723684 0.000000 0.000000 0.000000 -0.026434 -0.066796 0.670611 0.468101 0.033774 2.385067 3.809918 4.990578 7.307316 0.000000 0.000000 0.000000 0.959112 -0.056322 1.054058 -1.317891 0.625231 0.652980 -0.657540 0.060338 2.622609 3.255913 -1.410954 -10.057207 0.000000 0.000000 0.000000 -25.949255 -7.502885 1.775005 -47.437622 -2.988672 -4.279359 -9.969638 -22.960313 2.839488 0.000000 0.000000 0.000000 25.411929 6.864158 1.821996 51.138313 3.660685 -3.309695 9.726443 23.259764 2.575819 0.000000 0.000000 0.000000 
0.000112 0.952426 -0.000116 -0.179895 1.878602 -1.088214 0.643766 0.212012 2.633980 0.558667 -0.096117 0.912950 -4.022786 -3.376379 8.809177 0.000000 0.000000 0.000000 -0.283484 -0.121353 1.266747 1.066759 -0.078614 1.347337 3.110049 2.976585 8.522583 0.000000 0.000000 0.000000 0.256259 -0.044005 1.017740 -1.220545 0.543008 2.102215 -0.082435 -0.909321 1.350393 2.460263 -0.933734 -9.609497 0.000000 0.000000 0.000000 -26.218717 -7.307304 1.730611 -47.174475 -2.989725 -4.185300 -9.831510 -23.026962 2.823577 0.000000 0.000000 0.000000 26.092795 7.639913 2.086926 50.056166 3.702184 -3.065768 9.209483 23.176679 2.437625 0.000000 0.000000 0.000000 
0.000124 0.952176 -0.000054 -0.319831 2.235058 -1.260334 0.773014 0.219838 2.804426 0.672539 -0.107471 0.877752 -4.159341 -3.656652 8.666701 0.000000 0.000000 0.000000 -0.233589 -0.133400 1.364776 1.613964 -0.157863 0.918004 2.683071 1.556388 9.697297 0.000000 0.000000 0.000000 0.341529 -0.058077 1.324049 -1.106724 0.496370 1.577363 -0.128372 -0.898702 2.271797 2.228323 -0.700429 -10.376608 0.000000 0.000000 0.000000 -26.536221 -7.612470 1.873768 -46.890198 -3.121965 -4.172485 -9.665047 -23.040177 2.791583 0.000000 0.000000 0.000000 26.299534 7.387850 2.045503 50.366085 3.810487 -3.158109 8.100933 23.355564 2.268652 0.000000 0.000000 0.000000 
0.000125 0.952139 0.000092 -0.206039 2.486481 -1.334298 0.466646 0.231881 2.820465 0.552087 -0.124620 1.637463 -3.317531 -2.897315 7.133621 0.000000 0.000000 0.000000 -0.180025 -0.166426 1.671786 1.329838 -0.133388 0.585359 2.564748 1.362794 9.656755 0.000000 0.000000 0.000000 0.166865 -0.055792 1.335086 -1.097524 0.482844 1.875771 -0.014338 -0.960686 1.858154 2.493910 -0.910616 -9.980124 0.000000 0.000000 0.000000 -26.820402 -7.660152 1.863539 -46.757331 -2.950690 -4.185104 -9.250310 -22.886573 2.683057 0.000000 0.000000 0.000000 26.626206 7.612436 2.174784 49.753109 3.733556 -3.118679 8.346135 23.235260 2.298035 0.000000 0.000000 0.000000 
0.000173 0.951978 0.000316 -0.316780 2.685208 -1.320369 0.401368 0.247061 2.982708 0.537572 -0.110731 1.342077 -2.818955 -2.064388 6.914099 0.000000 0.000000 0.000000 -0.008428 -0.202070 1.963762 1.261276 -0.139606 0.084693 2.508098 1.236216 9.739739 0.000000 0.000000 0.000000 0.315197 -0.051820 1.193777 -1.071084 0.468285 1.866224 -0.065245 -1.004132 1.942718 2.551111 -0.978361 -9.659688 0.000000 0.000000 0.000000 -26.948360 -7.797130 1.921096 -46.645032 -3.027671 -4.144724 -9.199038 -22.899158 2.672167 0.000000 0.000000 0.000000 26.608614 7.704505 2.267174 49.631520 3.918173 -3.054215 8.509148 22.910756 2.295476 0.000000 0.000000 0.000000 
0.000189 0.952036 0.000549 -0.334349 3.030899 -1.324072 0.219819 0.238160 2.809782 0.792465 -0.120207 0.874477 -2.879356 -1.425608 8.336496 0.000000 0.000000 0.000000 0.022927 -0.211538 2.038151 1.287840 -0.144968 0.036794 2.366516 0.973996 9.774063 0.000000 0.000000 0.000000 0.232310 -0.050679 1.196223 -1.074057 0.472118 1.700264 -0.006554 -1.360296 2.003217 2.419858 -0.897219 -9.732418 0.000000 0.000000 0.000000 -27.021914 -7.549560 1.837058 -46.694526 -3.064264 -4.163536 -9.190032 -23.034685 2.694818 0.000000 0.000000 0.000000 26.525854 7.612597 2.141164 49.420311 3.890984 -3.038452 8.923522 22.723245 2.343344 0.000000 0.000000 0.000000 
0.000262 0.951985 0.000674 -0.353161 3.004582 -1.395941 0.005662 0.242487 2.764086 1.293654 -0.149291 0.288615 -3.175061 -1.117922 10.052307 0.000000 0.000000 0.000000 0.081983 -0.214345 2.047284 1.208135 -0.132032 0.172262 2.360191 0.984043 9.714695 0.000000 0.000000 0.000000 0.240196 -0.050538 1.191629 -0.966388 0.417235 1.747438 -0.084830 -1.366758 2.114008 2.240938 -0.768725 -9.826623 0.000000 0.000000 0.000000 -26.939204 -7.604651 1.879037 -46.775363 -3.198386 -4.131276 -9.482656 -22.857019 2.732568 0.000000 0.000000 0.000000 26.272970 7.602557 2.144570 49.650490 4.064212 -2.993957 9.101887 22.860508 2.393257 0.000000 0.000000 0.000000 
0.000301 0.951743 0.000783 -0.313028 3.407313 -1.403191 -0.260471 0.263265 2.898012 1.750725 -0.183093 0.005961 -3.343091 -1.390873 9.993222 0.000000 0.000000 0.000000 0.180802 -0.218613 2.050687 1.012840 -0.107836 0.263668 2.140788 0.644615 9.571513 0.000000 0.000000 0.000000 0.039265 -0.043572 1.089160 -0.797685 0.322353 1.976459 -0.046491 -1.753626 2.042500 1.958758 -0.586039 -9.894711 0.000000 0.000000 0.000000 -27.001394 -7.480732 1.871687 -46.996237 -3.287879 -4.134016 -9.508554 -22.850676 2.745048 0.000000 0.000000 0.000000 25.948778 7.811547 2.203214 49.851251 4.194396 -2.923315 9.250638 22.561827 2.376049 0.000000 0.000000 0.000000 
0.000281 0.951598 0.000893 -0.208721 3.583357 -1.426711 -0.303602 0.266025 2.915257 1.658774 -0.173246 0.012148 -3.433332 -1.532995 9.983153 0.000000 0.000000 0.000000 0.132655 -0.215312 2.030999 0.926364 -0.093977 0.401942 2.028376 0.490186 9.438018 0.000000 0.000000 0.000000 -0.108056 -0.035238 0.923305 -0.643381 0.252215 1.730346 -0.078280 -1.967322 2.437365 1.734118 -0.442919 -9.956506 0.000000 0.000000 0.000000 -26.969847 -7.366610 1.861344 -47.268989 -3.125770 -4.269084 -9.765589 -22.977338 2.821226 0.000000 0.000000 0.000000 25.730884 7.785228 2.166846 50.032795 4.175392 -2.968647 9.566606 22.613462 2.439026 0.000000 0.000000 0.000000 
0.000323 0.951484 0.000974 -0.040438 3.716974 -1.482705 -0.484113 0.275833 2.948031 1.669757 -0.176803 0.066534 -3.501777 -1.633264 9.991745 0.000000 0.000000 0.000000 -0.128155 -0.208324 2.038137 1.076877 -0.107743 0.556638 1.951543 0.395678 9.317101 0.000000 0.000000 0.000000 -0.307996 -0.030895 0.861089 -0.538939 0.208808 1.476943 -0.098091 -2.220898 2.725004 1.832012 -0.529821 -9.915116 0.000000 0.000000 0.000000 -26.978851 -7.263259 1.874858 -47.430900 -2.878135 -4.424977 -9.893194 -23.092324 2.870781 0.000000 0.000000 0.000000 25.542758 7.889508 2.184090 50.156296 4.137792 -3.004076 9.824386 22.645933 2.486375 0.000000 0.000000 0.000000 
0.000345 0.951510 0.001001 0.067834 3.921448 -1.431425 -0.684328 0.266851 2.766555 1.839677 -0.204217 0.262990 -3.585673 -1.753227 9.996600 0.000000 0.000000 0.000000 -0.119318 -0.194027 1.894027 0.883734 -0.078681 0.766635 1.820508 0.191009 9.216651 0.000000 0.000000 0.000000 -0.571349 -0.021802 0.673392 -0.339487 0.114143 1.327391 -0.158705 -2.579296 3.007172 1.791726 -0.510016 -10.073931 0.000000 0.000000 0.000000 -26.963701 -7.098058 1.873243 -47.528873 -2.834288 -4.502305 -9.850233 -23.101244 2.875414 0.000000 0.000000 0.000000 25.398480 7.955329 2.153465 50.270829 4.265308 -2.961725 9.872795 22.837288 2.512333 0.000000 0.000000 0.000000 
0.000405 0.951738 0.001003 0.231875 3.989666 -1.606004 -0.993011 0.270216 2.681833 2.065028 -0.254970 0.754928 -3.604651 -1.761446 10.030916 0.000000 0.000000 0.000000 -0.158159 -0.191527 1.878092 0.635840 -0.035661 1.173501 1.751631 0.096561 9.112889 0.000000 0.000000 0.000000 -0.962526 -0.021965 0.753235 -0.126345 -0.000922 1.538587 -0.070690 -2.859674 2.876894 1.456595 -0.325058 -9.822956 0.000000 0.000000 0.000000 -27.235602 -6.772500 1.760440 -47.414579 -2.782206 -4.532745 -9.937297 -22.964685 2.885637 0.000000 0.000000 0.000000 25.129202 8.245270 2.227456 50.378017 4.271892 -2.923495 9.811549 22.927941 2.498371 0.000000 0.000000 0.000000 
0.000444 0.952048 0.000975 0.221139 4.089640 -1.771496 -0.902011 0.267063 2.691412 1.938600 -0.255605 1.033046 -3.669809 -1.834896 10.085818 0.000000 0.000000 0.000000 -0.030552 -0.201291 1.934142 0.438386 -0.003269 1.407293 1.702993 -0.007303 9.149163 0.000000 0.000000 0.000000 -1.139368 -0.021721 0.767149 0.038534 -0.081706 1.494553 -0.073388 -2.998298 3.156477 1.406308 -0.274326 -10.150025 0.000000 0.000000 0.000000 -27.328081 -6.701004 1.757578 -47.416420 -2.969298 -4.499840 -9.931288 -22.539485 2.833616 0.000000 0.000000 0.000000 25.093714 8.322977 2.256275 50.494842 4.577344 -2.826241 9.387796 22.797701 2.404257 0.000000 0.000000 0.000000 
